<mxfile host="app.diagrams.net" agent="Mozilla/5.0 (Windows NT 10.0; Win64; x64) AppleWebKit/537.36 (KHTML, like Gecko) Chrome/136.0.0.0 Safari/537.36" version="27.0.4">
  <diagram name="PÃ¡gina-1" id="6oG66nSqs-B_kCubFERw">
    <mxGraphModel dx="1188" dy="624" grid="1" gridSize="10" guides="1" tooltips="1" connect="1" arrows="1" fold="1" page="1" pageScale="1" pageWidth="827" pageHeight="1169" math="0" shadow="0">
      <root>
        <mxCell id="0" />
        <mxCell id="1" parent="0" />
        <mxCell id="jb08B2BeuIm3eIl0QsD3-1" value="1" style="ellipse;whiteSpace=wrap;html=1;aspect=fixed;" vertex="1" parent="1">
          <mxGeometry x="340" y="120" width="80" height="80" as="geometry" />
        </mxCell>
        <mxCell id="jb08B2BeuIm3eIl0QsD3-2" value="2" style="ellipse;whiteSpace=wrap;html=1;aspect=fixed;" vertex="1" parent="1">
          <mxGeometry x="340" y="250" width="80" height="80" as="geometry" />
        </mxCell>
        <mxCell id="jb08B2BeuIm3eIl0QsD3-3" value="3" style="ellipse;whiteSpace=wrap;html=1;aspect=fixed;" vertex="1" parent="1">
          <mxGeometry x="340" y="400" width="80" height="80" as="geometry" />
        </mxCell>
        <mxCell id="jb08B2BeuIm3eIl0QsD3-4" value="7" style="ellipse;whiteSpace=wrap;html=1;aspect=fixed;" vertex="1" parent="1">
          <mxGeometry x="170" y="560" width="80" height="80" as="geometry" />
        </mxCell>
        <mxCell id="jb08B2BeuIm3eIl0QsD3-5" value="4" style="ellipse;whiteSpace=wrap;html=1;aspect=fixed;" vertex="1" parent="1">
          <mxGeometry x="470" y="560" width="80" height="80" as="geometry" />
        </mxCell>
        <mxCell id="jb08B2BeuIm3eIl0QsD3-6" value="5" style="ellipse;whiteSpace=wrap;html=1;aspect=fixed;" vertex="1" parent="1">
          <mxGeometry x="570" y="700" width="80" height="80" as="geometry" />
        </mxCell>
        <mxCell id="jb08B2BeuIm3eIl0QsD3-7" value="6" style="ellipse;whiteSpace=wrap;html=1;aspect=fixed;" vertex="1" parent="1">
          <mxGeometry x="390" y="700" width="80" height="80" as="geometry" />
        </mxCell>
        <mxCell id="jb08B2BeuIm3eIl0QsD3-8" value="" style="endArrow=none;html=1;rounded=0;entryX=0.5;entryY=1;entryDx=0;entryDy=0;exitX=0.5;exitY=0;exitDx=0;exitDy=0;" edge="1" parent="1" source="jb08B2BeuIm3eIl0QsD3-2" target="jb08B2BeuIm3eIl0QsD3-1">
          <mxGeometry width="50" height="50" relative="1" as="geometry">
            <mxPoint x="270" y="270" as="sourcePoint" />
            <mxPoint x="320" y="220" as="targetPoint" />
          </mxGeometry>
        </mxCell>
        <mxCell id="jb08B2BeuIm3eIl0QsD3-9" value="" style="endArrow=none;html=1;rounded=0;entryX=0.5;entryY=1;entryDx=0;entryDy=0;exitX=0.5;exitY=0;exitDx=0;exitDy=0;" edge="1" parent="1" source="jb08B2BeuIm3eIl0QsD3-3" target="jb08B2BeuIm3eIl0QsD3-2">
          <mxGeometry width="50" height="50" relative="1" as="geometry">
            <mxPoint x="250" y="440" as="sourcePoint" />
            <mxPoint x="300" y="390" as="targetPoint" />
          </mxGeometry>
        </mxCell>
        <mxCell id="jb08B2BeuIm3eIl0QsD3-10" value="" style="endArrow=none;html=1;rounded=0;entryX=0.225;entryY=0.938;entryDx=0;entryDy=0;entryPerimeter=0;" edge="1" parent="1" source="jb08B2BeuIm3eIl0QsD3-4" target="jb08B2BeuIm3eIl0QsD3-3">
          <mxGeometry width="50" height="50" relative="1" as="geometry">
            <mxPoint x="240" y="530" as="sourcePoint" />
            <mxPoint x="290" y="480" as="targetPoint" />
          </mxGeometry>
        </mxCell>
        <mxCell id="jb08B2BeuIm3eIl0QsD3-11" value="" style="endArrow=none;html=1;rounded=0;entryX=0.763;entryY=0.95;entryDx=0;entryDy=0;entryPerimeter=0;" edge="1" parent="1" source="jb08B2BeuIm3eIl0QsD3-5" target="jb08B2BeuIm3eIl0QsD3-3">
          <mxGeometry width="50" height="50" relative="1" as="geometry">
            <mxPoint x="410" y="560" as="sourcePoint" />
            <mxPoint x="460" y="510" as="targetPoint" />
          </mxGeometry>
        </mxCell>
        <mxCell id="jb08B2BeuIm3eIl0QsD3-12" value="" style="endArrow=none;html=1;rounded=0;entryX=0.375;entryY=0;entryDx=0;entryDy=0;entryPerimeter=0;" edge="1" parent="1" source="jb08B2BeuIm3eIl0QsD3-5" target="jb08B2BeuIm3eIl0QsD3-6">
          <mxGeometry width="50" height="50" relative="1" as="geometry">
            <mxPoint x="660" y="680" as="sourcePoint" />
            <mxPoint x="710" y="630" as="targetPoint" />
          </mxGeometry>
        </mxCell>
        <mxCell id="jb08B2BeuIm3eIl0QsD3-14" value="" style="endArrow=none;html=1;rounded=0;entryX=0.375;entryY=0.963;entryDx=0;entryDy=0;entryPerimeter=0;" edge="1" parent="1" source="jb08B2BeuIm3eIl0QsD3-7" target="jb08B2BeuIm3eIl0QsD3-5">
          <mxGeometry width="50" height="50" relative="1" as="geometry">
            <mxPoint x="310" y="730" as="sourcePoint" />
            <mxPoint x="360" y="680" as="targetPoint" />
          </mxGeometry>
        </mxCell>
        <mxCell id="jb08B2BeuIm3eIl0QsD3-15" value="" style="endArrow=none;html=1;rounded=0;entryX=0;entryY=0.5;entryDx=0;entryDy=0;exitX=1;exitY=0.5;exitDx=0;exitDy=0;" edge="1" parent="1" source="jb08B2BeuIm3eIl0QsD3-7" target="jb08B2BeuIm3eIl0QsD3-6">
          <mxGeometry width="50" height="50" relative="1" as="geometry">
            <mxPoint x="490" y="850" as="sourcePoint" />
            <mxPoint x="540" y="800" as="targetPoint" />
          </mxGeometry>
        </mxCell>
        <mxCell id="jb08B2BeuIm3eIl0QsD3-17" value="" style="endArrow=none;html=1;rounded=0;exitX=0.363;exitY=0.025;exitDx=0;exitDy=0;exitPerimeter=0;entryX=0.425;entryY=1;entryDx=0;entryDy=0;entryPerimeter=0;" edge="1" parent="1" source="jb08B2BeuIm3eIl0QsD3-7" target="jb08B2BeuIm3eIl0QsD3-3">
          <mxGeometry width="50" height="50" relative="1" as="geometry">
            <mxPoint x="340" y="640" as="sourcePoint" />
            <mxPoint x="390" y="590" as="targetPoint" />
          </mxGeometry>
        </mxCell>
        <mxCell id="jb08B2BeuIm3eIl0QsD3-18" value="NODOS =7&lt;div&gt;REGIONES=3&lt;/div&gt;&lt;div&gt;ARISTAS=8&lt;/div&gt;" style="text;html=1;align=center;verticalAlign=middle;whiteSpace=wrap;rounded=0;" vertex="1" parent="1">
          <mxGeometry x="530" y="145" width="220" height="30" as="geometry" />
        </mxCell>
        <mxCell id="jb08B2BeuIm3eIl0QsD3-19" value="a - n + 2 = 3&lt;div&gt;r = 3&lt;/div&gt;&lt;div&gt;2(decision) + 1 = 3&lt;/div&gt;" style="text;html=1;align=center;verticalAlign=middle;whiteSpace=wrap;rounded=0;" vertex="1" parent="1">
          <mxGeometry x="565" y="230" width="150" height="30" as="geometry" />
        </mxCell>
        <mxCell id="jb08B2BeuIm3eIl0QsD3-20" value="c1 = 1,2,3,7&lt;div&gt;c2 = 1,2,3,4,5,6,3,7&lt;/div&gt;&lt;div&gt;c3 = 1,2,3,4,6,3,7&lt;/div&gt;" style="text;html=1;align=center;verticalAlign=middle;whiteSpace=wrap;rounded=0;" vertex="1" parent="1">
          <mxGeometry x="610" y="320" width="140" height="30" as="geometry" />
        </mxCell>
      </root>
    </mxGraphModel>
  </diagram>
</mxfile>
